<svg xmlns="http://www.w3.org/2000/svg" viewBox="0 0 1080 1512" role="img" aria-labelledby="title desc">
  <title id="title">苏州东山枇杷产品海报</title>
  <desc id="desc">江南山水、东山村落与金黄枇杷组成的农产品海报</desc>
  <defs>
    <linearGradient id="sky" x1="0" y1="0" x2="0" y2="1">
      <stop offset="0" stop-color="#f7f4e8"/>
      <stop offset=".52" stop-color="#dce7dc"/>
      <stop offset="1" stop-color="#eef0d8"/>
    </linearGradient>
    <linearGradient id="water" x1="0" y1="0" x2="1" y2="1">
      <stop offset="0" stop-color="#dce8df"/>
      <stop offset="1" stop-color="#a9c5b8"/>
    </linearGradient>
    <radialGradient id="fruit" cx=".38" cy=".3" r=".72">
      <stop offset="0" stop-color="#fff2a5"/>
      <stop offset=".55" stop-color="#f4c447"/>
      <stop offset="1" stop-color="#d89320"/>
    </radialGradient>
    <filter id="soft" x="-20%" y="-20%" width="140%" height="140%">
      <feGaussianBlur stdDeviation="10"/>
    </filter>
  </defs>
  <rect width="1080" height="1512" fill="#f5efdd"/>
  <rect width="1080" height="1512" fill="url(#sky)"/>
  <g opacity=".35" fill="none" stroke="#718974" stroke-width="4">
    <path d="M0 308c120-98 195-98 315 0 124-118 253-115 390 9 116-99 234-101 375-11"/>
    <path d="M0 372c138-74 245-68 364 21 123-93 258-89 392 13 112-72 217-78 324-18"/>
  </g>
  <g transform="translate(724 332)" opacity=".9">
    <path d="M0 178c42-64 99-112 173-146 64 28 118 78 162 151-93-20-199-19-335-5Z" fill="#6d8c61"/>
    <path d="M38 159c45-38 91-67 138-86 46 19 87 48 125 87" fill="none" stroke="#e3eadb" stroke-width="5" opacity=".45"/>
    <path d="M35 198h278v116H35z" fill="#f7f3e7" opacity=".92"/>
    <path d="M41 198h266v30H41z" fill="#24382f"/>
    <g fill="#24382f">
      <rect x="66" y="228" width="22" height="86"/>
      <rect x="139" y="228" width="22" height="86"/>
      <rect x="211" y="228" width="22" height="86"/>
      <path d="M19 314h323v22H19z"/>
    </g>
  </g>
  <path d="M-30 500c190-48 334-49 526-8 192 40 367 50 614 10v238H-30Z" fill="url(#water)" opacity=".92"/>
  <path d="M0 646c146-36 314-45 500-13 207 36 392 31 580-15v150H0Z" fill="#c7dbcf" opacity=".65"/>
  <g transform="translate(0 590)">
    <path d="M0 170c228-86 427-95 596-26 134 54 296 49 484-15v793H0Z" fill="#4f764a"/>
    <path d="M0 220c189-59 389-63 600-13 182 43 342 35 480-25v740H0Z" fill="#365d3c"/>
    <g opacity=".55" stroke="#d2dd8f" stroke-width="5" fill="none">
      <path d="M-30 258c201-45 391-48 570-9 202 43 392 31 570-37"/>
      <path d="M-30 318c201-45 391-48 570-9 202 43 392 31 570-37"/>
      <path d="M-30 378c201-45 391-48 570-9 202 43 392 31 570-37"/>
      <path d="M-30 438c201-45 391-48 570-9 202 43 392 31 570-37"/>
    </g>
  </g>
  <g transform="translate(62 30)" fill="#4b7a37" opacity=".72">
    <path d="M13 0c31 58 29 112-7 162-18-53-16-107 7-162Z"/>
    <path d="M76 14c23 48 18 93-15 136-14-49-9-94 15-136Z"/>
    <path d="M136 38c17 39 11 76-20 111-9-42-3-79 20-111Z"/>
    <path d="M201 57c14 34 7 68-20 100-7-38 0-71 20-100Z"/>
  </g>
  <g transform="translate(73 82)">
    <text x="318" y="82" font-family="'Noto Serif SC','Source Han Serif SC',serif" font-size="88" font-weight="700" fill="#084f32" text-anchor="middle">苏州东山</text>
    <text x="403" y="244" font-family="'Noto Serif SC','Source Han Serif SC',serif" font-size="178" font-weight="800" fill="#074a2f" text-anchor="middle">枇杷</text>
    <text x="488" y="332" font-family="'Noto Serif SC','Source Han Serif SC',serif" font-size="40" font-weight="600" fill="#194a32" text-anchor="middle">江南佳果　甘润鲜甜</text>
    <text x="92" y="418" font-family="'Noto Serif SC','Source Han Serif SC',serif" font-size="29" fill="#263629">
      <tspan x="92" dy="0">产自苏州东山，临湖而生，日照充足，</tspan>
      <tspan x="92" dy="50">果形圆润，色泽金黄。果肉细嫩多汁，</tspan>
      <tspan x="92" dy="50">酸甜适口，香气清雅，入口甘润鲜爽。</tspan>
    </text>
  </g>
  <g transform="translate(824 67)" fill="none" stroke="#af1e22" stroke-width="9">
    <rect x="0" y="0" width="156" height="246" rx="14"/>
    <rect x="16" y="16" width="124" height="214" rx="8" stroke-width="4"/>
    <text x="94" y="69" writing-mode="tb" font-family="'Noto Serif SC','Source Han Serif SC',serif" font-size="42" font-weight="800" fill="#af1e22" stroke="none">苏州福宝</text>
    <text x="48" y="73" writing-mode="tb" font-family="'Noto Serif SC','Source Han Serif SC',serif" font-size="42" font-weight="800" fill="#af1e22" stroke="none">农产品</text>
  </g>
  <g transform="translate(132 712)">
    <g fill="#f9f5df" stroke="#567044" stroke-width="4">
      <rect x="0" y="0" width="126" height="206" rx="50"/>
      <rect x="162" y="0" width="126" height="206" rx="50"/>
      <rect x="324" y="0" width="126" height="206" rx="50"/>
      <rect x="486" y="0" width="126" height="206" rx="50"/>
    </g>
    <g font-family="'Noto Serif SC','Source Han Serif SC',serif" font-size="34" font-weight="650" fill="#365d31" text-anchor="middle">
      <text x="63" y="83">东山</text><text x="63" y="132">原产</text>
      <text x="225" y="83">果肉</text><text x="225" y="132">细嫩</text>
      <text x="387" y="83">汁多</text><text x="387" y="132">味甜</text>
      <text x="549" y="83">新鲜</text><text x="549" y="132">采摘</text>
    </g>
  </g>
  <ellipse cx="535" cy="1134" rx="354" ry="92" fill="#19281e" opacity=".28" filter="url(#soft)"/>
  <g transform="translate(70 858)">
    <path d="M731 251c105-45 193-33 276 41-100 23-186 9-276-41Z" fill="#355f2d"/>
    <path d="M75 235c-76-60-86-135-28-224 75 60 85 136 28 224Z" fill="#315d2b"/>
    <path d="M850 438c70-56 146-67 230-32-56 71-131 83-230 32Z" fill="#376b30"/>
    <g>
      <circle cx="344" cy="318" r="119" fill="url(#fruit)"/>
      <circle cx="497" cy="285" r="122" fill="url(#fruit)"/>
      <circle cx="626" cy="360" r="115" fill="url(#fruit)"/>
      <circle cx="216" cy="421" r="109" fill="url(#fruit)"/>
      <circle cx="376" cy="454" r="124" fill="url(#fruit)"/>
      <circle cx="548" cy="482" r="118" fill="url(#fruit)"/>
      <circle cx="704" cy="505" r="102" fill="url(#fruit)"/>
      <circle cx="712" cy="240" r="90" fill="url(#fruit)"/>
    </g>
    <g fill="#6a3b1f" opacity=".9">
      <path d="M325 281c18 6 30 17 36 34-17 8-33 6-48-7 0-13 4-22 12-27Z"/>
      <path d="M482 247c18 6 31 18 36 35-17 8-34 5-49-8 0-12 4-21 13-27Z"/>
      <path d="M612 322c19 6 31 18 36 35-17 8-34 5-49-8 0-12 4-21 13-27Z"/>
      <path d="M203 384c18 6 30 17 36 34-17 8-33 6-48-7 0-13 4-22 12-27Z"/>
      <path d="M533 445c19 6 31 18 36 35-17 8-34 5-49-8 0-12 4-21 13-27Z"/>
    </g>
    <ellipse cx="502" cy="567" rx="390" ry="50" fill="#e6d7ac"/>
    <path d="M122 540c224 65 491 66 742 1" fill="none" stroke="#b48b54" stroke-width="25" stroke-linecap="round"/>
  </g>
  <g transform="translate(45 1015)">
    <path d="M0 0h118c28 0 50 22 50 50v302H0Z" fill="#ecf1d8" stroke="#597344" stroke-width="4"/>
    <text x="84" y="75" writing-mode="tb" font-family="'Noto Serif SC','Source Han Serif SC',serif" font-size="39" font-weight="700" fill="#365b31">东山枇杷</text>
    <text x="34" y="78" writing-mode="tb" font-family="'Noto Serif SC','Source Han Serif SC',serif" font-size="39" font-weight="700" fill="#365b31">一口初夏甜</text>
  </g>
  <g transform="translate(0 1426)">
    <path d="M0 0h1080v86H0z" fill="#0b5639"/>
    <text x="540" y="56" font-family="'Noto Serif SC','Source Han Serif SC',serif" font-size="42" font-weight="700" fill="#f1dfa0" text-anchor="middle">一口东山枇杷，品味江南初夏</text>
  </g>
</svg>
