<svg xmlns="http://www.w3.org/2000/svg" viewBox="0 0 1080 1512" role="img" aria-labelledby="title desc">
  <title id="title">苏州东山碧螺春产品海报</title>
  <desc id="desc">江南茶山、太湖水岸与碧螺春茶汤组成的农产品海报</desc>
  <defs>
    <linearGradient id="sky" x1="0" y1="0" x2="0" y2="1">
      <stop offset="0" stop-color="#f9f6eb"/>
      <stop offset=".52" stop-color="#dce8df"/>
      <stop offset="1" stop-color="#edf2dc"/>
    </linearGradient>
    <linearGradient id="water" x1="0" y1="0" x2="1" y2="1">
      <stop offset="0" stop-color="#e2eee4"/>
      <stop offset="1" stop-color="#a8c4b4"/>
    </linearGradient>
    <linearGradient id="tea" x1="0" y1="0" x2="0" y2="1">
      <stop offset="0" stop-color="#edf7a0" stop-opacity=".72"/>
      <stop offset="1" stop-color="#8fbc34" stop-opacity=".88"/>
    </linearGradient>
    <filter id="soft" x="-20%" y="-20%" width="140%" height="140%">
      <feGaussianBlur stdDeviation="9"/>
    </filter>
  </defs>
  <rect width="1080" height="1512" fill="#f4f0dd"/>
  <rect width="1080" height="1512" fill="url(#sky)"/>
  <g opacity=".34" fill="none" stroke="#718974" stroke-width="4">
    <path d="M0 318c118-102 221-104 342-6 128-119 258-111 392 24 99-88 215-90 346-5"/>
    <path d="M0 388c150-80 280-72 395 23 118-83 250-75 398 20 107-75 202-83 287-25"/>
  </g>
  <path d="M-30 512c204-54 370-54 497-2 191 78 394 81 643 10v214H-30Z" fill="url(#water)" opacity=".93"/>
  <g transform="translate(716 350)" opacity=".9">
    <path d="M0 160c42-62 99-109 171-141 63 27 117 76 159 147-92-19-198-22-330-6Z" fill="#6b8a62"/>
    <path d="M35 184h278v118H35z" fill="#f8f4e9" opacity=".92"/>
    <path d="M42 184h264v31H42z" fill="#24382f"/>
    <g fill="#24382f">
      <rect x="66" y="215" width="22" height="87"/>
      <rect x="139" y="215" width="22" height="87"/>
      <rect x="211" y="215" width="22" height="87"/>
      <path d="M19 302h323v22H19z"/>
    </g>
  </g>
  <g transform="translate(0 602)">
    <path d="M0 176c171-78 334-94 489-49 159 46 355 39 591-22v805H0Z" fill="#5b853e"/>
    <g opacity=".6" stroke="#d3e189" stroke-width="8" fill="none">
      <path d="M-35 242c244-74 491-80 740-17 141 36 271 35 390-4"/>
      <path d="M-35 300c244-74 491-80 740-17 141 36 271 35 390-4"/>
      <path d="M-35 358c244-74 491-80 740-17 141 36 271 35 390-4"/>
      <path d="M-35 416c244-74 491-80 740-17 141 36 271 35 390-4"/>
      <path d="M-35 474c244-74 491-80 740-17 141 36 271 35 390-4"/>
    </g>
  </g>
  <g transform="translate(64 28)" fill="#4b7a37" opacity=".72">
    <path d="M12 0c31 58 29 112-7 162-18-53-16-107 7-162Z"/>
    <path d="M76 14c23 48 18 93-15 136-14-49-9-94 15-136Z"/>
    <path d="M136 38c17 39 11 76-20 111-9-42-3-79 20-111Z"/>
    <path d="M201 57c14 34 7 68-20 100-7-38 0-71 20-100Z"/>
  </g>
  <g transform="translate(62 90)">
    <text x="336" y="74" font-family="'Noto Serif SC','Source Han Serif SC',serif" font-size="86" font-weight="700" fill="#084f32" text-anchor="middle">苏州东山</text>
    <text x="430" y="244" font-family="'Noto Serif SC','Source Han Serif SC',serif" font-size="154" font-weight="800" fill="#074a2f" text-anchor="middle">碧螺春</text>
    <text x="520" y="337" font-family="'Noto Serif SC','Source Han Serif SC',serif" font-size="40" font-weight="600" fill="#194a32" text-anchor="middle">江南名茶　清香鲜爽</text>
    <text x="92" y="430" font-family="'Noto Serif SC','Source Han Serif SC',serif" font-size="29" fill="#263629">
      <tspan x="92" dy="0">产自苏州东山，依山傍水，芽叶细嫩，</tspan>
      <tspan x="92" dy="50">卷曲如螺，银绿隐翠。冲泡后汤色清澈，</tspan>
      <tspan x="92" dy="50">花果香幽雅持久，滋味鲜醇回甘。</tspan>
    </text>
  </g>
  <g transform="translate(824 67)" fill="none" stroke="#af1e22" stroke-width="9">
    <rect x="0" y="0" width="156" height="246" rx="14"/>
    <rect x="16" y="16" width="124" height="214" rx="8" stroke-width="4"/>
    <text x="94" y="69" writing-mode="tb" font-family="'Noto Serif SC','Source Han Serif SC',serif" font-size="42" font-weight="800" fill="#af1e22" stroke="none">苏州福宝</text>
    <text x="48" y="73" writing-mode="tb" font-family="'Noto Serif SC','Source Han Serif SC',serif" font-size="42" font-weight="800" fill="#af1e22" stroke="none">农产品</text>
  </g>
  <g transform="translate(132 722)">
    <g fill="#f9f5df" stroke="#567044" stroke-width="4">
      <rect x="0" y="0" width="126" height="206" rx="50"/>
      <rect x="162" y="0" width="126" height="206" rx="50"/>
      <rect x="324" y="0" width="126" height="206" rx="50"/>
      <rect x="486" y="0" width="126" height="206" rx="50"/>
    </g>
    <g font-family="'Noto Serif SC','Source Han Serif SC',serif" font-size="34" font-weight="650" fill="#365d31" text-anchor="middle">
      <text x="63" y="83">明前</text><text x="63" y="132">采摘</text>
      <text x="225" y="83">嫩芽</text><text x="225" y="132">精制</text>
      <text x="387" y="83">花果</text><text x="387" y="132">香郁</text>
      <text x="549" y="83">鲜爽</text><text x="549" y="132">回甘</text>
    </g>
  </g>
  <g transform="translate(510 818)">
    <ellipse cx="250" cy="556" rx="228" ry="36" fill="#15251c" opacity=".23" filter="url(#soft)"/>
    <path d="M90 36c90-36 219-37 318 0 16 226-7 384-70 474-53 45-123 46-184 0C100 422 79 263 90 36Z" fill="#f7fff4" opacity=".55" stroke="#f8fff1" stroke-width="11"/>
    <ellipse cx="249" cy="45" rx="164" ry="44" fill="#f8fff1" opacity=".62" stroke="#ffffff" stroke-width="8"/>
    <path d="M100 171c90 38 206 41 300 3 0 134-22 247-65 318-49 39-116 40-171 0-36-67-58-174-64-321Z" fill="url(#tea)" opacity=".86"/>
    <g fill="#607d23" opacity=".92">
      <path d="M206 268c18-61 49-94 92-99-13 59-44 93-92 99Z"/>
      <path d="M276 344c37-49 77-68 120-58-32 47-72 66-120 58Z"/>
      <path d="M189 410c7-59 29-94 66-105-3 55-25 91-66 105Z"/>
      <path d="M299 238c31-37 63-52 96-45-25 35-57 50-96 45Z"/>
      <path d="M146 318c39-31 75-40 108-26-34 32-70 40-108 26Z"/>
    </g>
  </g>
  <g transform="translate(152 988)">
    <ellipse cx="260" cy="278" rx="320" ry="58" fill="#17251d" opacity=".22" filter="url(#soft)"/>
    <ellipse cx="260" cy="255" rx="285" ry="92" fill="#f9f8f2"/>
    <path d="M2 235c65 100 147 149 258 149 115 0 203-51 258-149-123 54-404 52-516 0Z" fill="#f5f4ed" stroke="#e4e1d5" stroke-width="8"/>
    <ellipse cx="260" cy="230" rx="258" ry="86" fill="#fbfbf6" stroke="#e0ded4" stroke-width="8"/>
    <g fill="none" stroke="#314633" stroke-width="19" stroke-linecap="round">
      <path d="M82 231c42-62 93-53 72 10-15 44 53 60 87 23 49-53 103-19 78 31"/>
      <path d="M196 192c50-51 103-30 77 25-18 39 30 71 83 39 64-39 98-9 68 37"/>
      <path d="M331 205c43-51 93-38 72 21-14 38 34 62 84 29"/>
      <path d="M130 284c42-45 94-39 72 14"/>
      <path d="M266 316c47-42 98-31 82 21"/>
    </g>
    <g fill="none" stroke="#8fa35e" stroke-width="8" stroke-linecap="round" opacity=".82">
      <path d="M92 229c44-31 79-26 104 14"/>
      <path d="M223 202c47-27 83-18 109 27"/>
      <path d="M348 213c42-25 75-18 99 21"/>
    </g>
  </g>
  <g transform="translate(45 1015)">
    <path d="M0 0h118c28 0 50 22 50 50v302H0Z" fill="#ecf1d8" stroke="#597344" stroke-width="4"/>
    <text x="84" y="75" writing-mode="tb" font-family="'Noto Serif SC','Source Han Serif SC',serif" font-size="39" font-weight="700" fill="#365b31">洞庭碧螺春</text>
    <text x="34" y="75" writing-mode="tb" font-family="'Noto Serif SC','Source Han Serif SC',serif" font-size="39" font-weight="700" fill="#365b31">一杯春意浓</text>
  </g>
  <g transform="translate(0 1426)">
    <path d="M0 0h1080v86H0z" fill="#0b5639"/>
    <text x="540" y="56" font-family="'Noto Serif SC','Source Han Serif SC',serif" font-size="42" font-weight="700" fill="#f1dfa0" text-anchor="middle">一杯碧螺春，品味苏州春意</text>
  </g>
</svg>
